<?xml version="1.0"?>
<svg version="1.1" xmlns="http://www.w3.org/2000/svg" width="400px" height="200px" style="border: dashed 2px #aaa"><path fill="#d10000" d="M50.98,116.8l0-2.38l2.1-0.84l0-13.16l-2.1-0.84l0-2.38l7.224-0.14l4.2,9.324l4.396-9.184l6.72-0.14l0,2.52l-2.016,0.84l0,13.16l2.1,0.84l0,2.38l-8.344,0l0-2.38l2.184-0.84l0-10.528l-0.756,1.848l-3.164,6.58l-3.024,0.14l-3.22-6.636l-0.476-1.456l0,10.052l2.156,0.84l0,2.38l-7.98,0z M77.51028,116.8l0-2.38l2.1-0.84l0-13.16l-2.1-0.84l0-2.38l7.224-0.14l4.2,9.324l4.396-9.184l6.72-0.14l0,2.52l-2.016,0.84l0,13.16l2.1,0.84l0,2.38l-8.344,0l0-2.38l2.184-0.84l0-10.528l-0.756,1.848l-3.164,6.58l-3.024,0.14l-3.22-6.636l-0.476-1.456l0,10.052l2.156,0.84l0,2.38l-7.98,0z M104.04056,116.8l0-2.38l2.1-0.84l0-13.216l-2.1-0.84l0-2.324l8.54-0.14l0,2.464l-2.1,0.84l0,4.816l1.904,0l4.676-7.98l5.18-0.14l0,2.464l-2.66,0.784l-3.668,6.104l5.208,7.168l2.1,0.84l0,2.38l-8.54,0l0-2.38l1.68-0.84l-3.836-5.32l-2.044,0l0,5.32l2.1,0.84l0,2.38l-8.54,0z M126.42684,116.8l0-2.38l2.1-0.84l0-13.16l-2.1-0.84l0-2.38l6.44-0.14l7.84,0l0,5.32l-2.604,0l-0.7-1.96l-4.536,0l0,4.9l5.796,0l0,3.08l-5.796,0l0,5.18l2.576,0.84l0,2.38l-9.016,0z M154.91712,113.44l0.616-3.08l2.66,0l0,6.44l-14,0l0-2.38l2.1-0.84l0-13.16l-2.1-0.84l0-2.38l8.54-0.14l0,2.52l-2.1,0.84l0,13.02l4.284,0z M161.5394,116.8l0-2.38l2.1-0.84l0-13.16l-2.1-0.84l0-2.38l8.54-0.14l0,2.52l-2.1,0.84l0,13.16l2.1,0.84l0,2.38l-8.54,0z M173.42568,116.8l0-2.38l1.736-0.7l5.656-6.832l-5.208-6.776l-1.624-0.532l0-2.38l8.4-0.14l0,2.52l-1.4,0.476l2.884,3.836l2.744-3.724l-1.512-0.588l0-2.38l8.064-0.14l0,2.52l-1.848,0.56l-5.152,6.524l5.46,7.084l1.96,0.672l0,2.38l-8.68,0l0-2.38l1.288-0.56l-3.08-4.144l-3.136,4.032l1.764,0.672l0,2.38l-8.316,0z"/><path fill="#" d=""/></svg>
